# xmcd CD database file
#
# Track frame offsets:
#	150
#	36452
#	54305
#	85960
#	134995
#	162305
#	183132
#	210170
#	232230
#	268230
#
# Disc length: 4154 seconds
#
# Revision: 0
# Processed by: cddbd v1.5PL3 Copyright (c) Steve Scherf et al.
# Submitted via: CDex 1.51
#
DISCID=9210380a
DTITLE=Patrick Hazell - in the prairieland
DYEAR=1996
DGENRE=Blues
TTITLE0=Prairieland Nightingale
TTITLE1=They Came From A Settled Land
TTITLE2=Leaving For The Prairie
TTITLE3=Slowly They Came Walking
TTITLE4=On The Wind
TTITLE5=Goin' Out West
TTITLE6=The Sky - Kansas
TTITLE7=They Coyotes Call
TTITLE8=This Land
TTITLE9=Home On The Range (written by B. Higley)
EXTD=YEAR: 1996
EXTT0=
EXTT1=
EXTT2=
EXTT3=
EXTT4=
EXTT5=
EXTT6=
EXTT7=
EXTT8=
EXTT9=
PLAYORDER=
